SplineFontDB: 3.0
FontName: SarahAnn-Regular
FullName: Sarah Ann Regular
FamilyName: Sarah Ann
Weight: Regular
Copyright: Created by Fil Zembowicz (fil@filosophy.org) with FontForge 2.0 (http://fontforge.sf.net)
UComments: "2013-5-17: Created." 
Version: 0.1
ItalicAngle: 0
UnderlinePosition: -102
UnderlineWidth: 51
Ascent: 819
Descent: 205
LayerCount: 2
Layer: 0 0 "Back"  1
Layer: 1 0 "Fore"  0
XUID: [1021 718 483122345 13344524]
FSType: 0
OS2Version: 0
OS2_WeightWidthSlopeOnly: 0
OS2_UseTypoMetrics: 1
CreationTime: 1368839848
ModificationTime: 1369105335
OS2TypoAscent: 0
OS2TypoAOffset: 1
OS2TypoDescent: 0
OS2TypoDOffset: 1
OS2TypoLinegap: 92
OS2WinAscent: 0
OS2WinAOffset: 1
OS2WinDescent: 0
OS2WinDOffset: 1
HheadAscent: 0
HheadAOffset: 1
HheadDescent: 0
HheadDOffset: 1
MarkAttachClasses: 1
DEI: 91125

StartChar: o
Encoding: 111 111 0
Width: 531
VWidth: 0
Flags: W
VStem: 345 114<158.625 480.369>
LayerCount: 2
UndoRedoHistory
Layer: 0
Undoes
EndUndoes
Redoes
EndRedoes
EndUndoRedoHistory
UndoRedoHistory
Layer: 1
Undoes
EndUndoes
Redoes
EndRedoes
EndUndoRedoHistory
Fore
SplineSet
210 299 m 0
 194 193 225 104 271 102 c 0
 317 100 340 190 345 297 c 0
 350 404 358 494 312 496 c 0
 266 498 227 407 210 299 c 0
72 227 m 0
 72 350 107 570 287 551 c 1
 300 564 272 609 271 631 c 0
 270 659 296 663 312 662 c 0
 406 655 459 459 459 291 c 0
 459 123 360 -24 260 -5 c 0
 157 15 72 59 72 227 c 0
EndSplineSet
Validated: 33
EndChar

StartChar: n
Encoding: 110 110 1
Width: 618
VWidth: 0
Flags: W
HStem: 575 20G<69.5 134.5>
VStem: 61 181<121.212 324.438> 432 125<6.28377 327.806>
LayerCount: 2
UndoRedoHistory
Layer: 0
Undoes
EndUndoes
Redoes
EndRedoes
EndUndoRedoHistory
UndoRedoHistory
Layer: 1
Undoes
EndUndoes
Redoes
EndRedoes
EndUndoRedoHistory
Fore
SplineSet
165 346 m 1
 239 428 254 551 367 553 c 0
 513 555 520 386 545 280 c 1
 562 174 555 153 557 79 c 8
 558 35 535 -16 496 -16 c 0
 410 -16 432 103 432 186 c 27
 432 292 432 428 376 451 c 0
 319 475 263 334 242 260 c 0
 211 151 230 19 168 7 c 0
 76 -10 61 65 61 213 c 0
 61 218 75 315 75 402 c 8
 75 478 31 594 108 595 c 0
 161 595 151 428 165 346 c 1
EndSplineSet
Validated: 33
EndChar

StartChar: r
Encoding: 114 114 2
Width: 531
VWidth: 0
Flags: W
HStem: 547 20G<117 208>
VStem: 132 113<9.40625 235.949>
LayerCount: 2
UndoRedoHistory
Layer: 0
Undoes
EndUndoes
Redoes
EndRedoes
EndUndoRedoHistory
UndoRedoHistory
Layer: 1
Undoes
EndUndoes
Redoes
EndRedoes
EndUndoRedoHistory
Fore
SplineSet
186 0 m 0
 82 -5 133 162 132 269 c 24
 131 387 55 537 179 567 c 1
 237 567 171 421 219 389 c 1
 245 390 259 440 302 466 c 0
 336 486 461 508 475 460 c 8
 497 386 371 416 317 339 c 0
 274 278 246 187 245 125 c 0
 244 44 254 3 186 0 c 0
EndSplineSet
Validated: 33
EndChar

StartChar: a
Encoding: 97 97 3
Width: 517
VWidth: 0
Flags: W
LayerCount: 2
UndoRedoHistory
Layer: 0
Undoes
EndUndoes
Redoes
EndRedoes
EndUndoRedoHistory
UndoRedoHistory
Layer: 1
Undoes
EndUndoes
Redoes
EndRedoes
EndUndoRedoHistory
Fore
SplineSet
150 247 m 0
 140 164 145 83 172 80 c 0
 199 77 282 153 292 236 c 0
 302 319 302 400 275 403 c 0
 248 406 160 330 150 247 c 0
72 300 m 0
 102 457 250 586 330 571 c 0
 410 556 393 268 403 200 c 0
 413 135 477 -26 448 -29 c 0
 357 -39 353 47 333 88 c 1
 294 40 199 -4 157 -1 c 0
 76 5 42 143 72 300 c 0
EndSplineSet
Validated: 33
EndChar

StartChar: d
Encoding: 100 100 5
Width: 669
VWidth: 0
Flags: W
LayerCount: 2
UndoRedoHistory
Layer: 0
Undoes
EndUndoes
Redoes
EndRedoes
EndUndoRedoHistory
UndoRedoHistory
Layer: 1
Undoes
EndUndoes
Redoes
EndRedoes
EndUndoRedoHistory
Fore
SplineSet
90 362 m 0
 123 441 191 551 377 559 c 1
 361 690 381 850 459 860 c 0
 537 870 490 437 535 266 c 0
 574 119 668 4 645 -53 c 0
 643 -57 549 -48 500 25 c 0
 452 97 449 223 447 219 c 1
 383 86 268 -35 160 21 c 0
 72 67 29 214 90 362 c 0
215 323 m 0
 173 239 184 147 225 127 c 0
 266 107 319 177 360 262 c 0
 385 313 432 433 391 453 c 0
 350 473 257 407 215 323 c 0
EndSplineSet
Validated: 33
EndChar

StartChar: b
Encoding: 98 98 6
Width: 563
VWidth: 0
Flags: W
LayerCount: 2
UndoRedoHistory
Layer: 0
Undoes
EndUndoes
Redoes
EndRedoes
EndUndoRedoHistory
UndoRedoHistory
Layer: 1
Undoes
EndUndoes
Redoes
EndRedoes
EndUndoRedoHistory
Fore
SplineSet
109 276 m 1
 121 452 -1 792 74 801 c 1
 236 819 186 508 215 469 c 1
 252 434 243 602 403 584 c 0
 480 575 521 428 493 265 c 0
 465 102 381 -9 303 -6 c 0
 155 0 81 113 109 276 c 1
256 276 m 0
 233 171 264 100 288 95 c 0
 312 90 344 103 367 208 c 0
 390 313 405 448 381 453 c 0
 357 458 279 381 256 276 c 0
EndSplineSet
Validated: 33
EndChar

StartChar: i
Encoding: 105 105 7
Width: 389
VWidth: 0
Flags: W
HStem: 724 76<114.118 231.878>
VStem: 106 146<140.523 435.217> 108 130<155.656 431.85 732.159 795.263>
LayerCount: 2
UndoRedoHistory
Layer: 0
Undoes
EndUndoes
Redoes
EndRedoes
EndUndoRedoHistory
UndoRedoHistory
Layer: 1
Undoes
EndUndoes
Redoes
EndRedoes
EndUndoRedoHistory
Fore
SplineSet
108 768 m 0xa0
 108 800 143 800 184 800 c 1
 219 813 236 811 238 771 c 1
 238 739 217 724 176 724 c 0
 135 724 108 736 108 768 c 0xa0
106 453 m 1xc0
 106 453 243 447 245 424 c 0
 255 316 252 281 252 189 c 27
 252 115 281 8 258 0 c 0
 219 -13 149 22 131 77 c 24
 84 216 106 453 106 453 c 1xc0
EndSplineSet
Validated: 33
EndChar

StartChar: k
Encoding: 107 107 8
Width: 612
VWidth: 0
Flags: HW
LayerCount: 2
UndoRedoHistory
Layer: 0
Undoes
EndUndoes
Redoes
EndRedoes
EndUndoRedoHistory
UndoRedoHistory
Layer: 1
Undoes
EndUndoes
Redoes
EndRedoes
EndUndoRedoHistory
Fore
SplineSet
137 830 m 4
 259 816 125 524 241 485 c 4
 269 476 391 734 436 633 c 4
 526 431 228 467 269 238 c 4
 286 141 499 256 531 141 c 4
 551 66 364 100 299 87 c 4
 273 82 302 -66 214 -48 c 4
 106 -25 142 188 133 369 c 4
 126 510 74 587 72 734 c 4
 71 793 84 836 137 830 c 4
EndSplineSet
Validated: 33
EndChar

StartChar: e
Encoding: 101 101 9
Width: 458
VWidth: 0
Flags: W
VStem: 80 333
LayerCount: 2
UndoRedoHistory
Layer: 0
Undoes
EndUndoes
Redoes
EndRedoes
EndUndoRedoHistory
UndoRedoHistory
Layer: 1
Undoes
EndUndoes
Redoes
EndRedoes
EndUndoRedoHistory
Fore
SplineSet
151 469 m 0
 189 554 262 603 315 580 c 0
 368 557 389 458 351 373 c 0
 330 325 252 284 218 266 c 0
 215 264 175 109 226 84 c 0
 274 61 390 197 413 131 c 0
 433 72 266 -28 195 -12 c 1
 132 -8 74 113 80 205 c 1
 79 297 113 384 151 469 c 0
240 450 m 0
 231 421 228 405 241 401 c 0
 254 397 278 406 287 435 c 0
 296 464 293 491 280 495 c 0
 267 499 249 479 240 450 c 0
EndSplineSet
Validated: 33
EndChar

StartChar: h
Encoding: 104 104 10
Width: 618
VWidth: 0
Flags: W
HStem: 797 20G<59.5 126.5>
VStem: 84 98<356 658.151> 90 168<189.363 351.616> 432 125<6.28377 327.806>
LayerCount: 2
UndoRedoHistory
Layer: 0
Undoes
EndUndoes
Redoes
EndRedoes
EndUndoRedoHistory
UndoRedoHistory
Layer: 1
Undoes
EndUndoes
Redoes
EndRedoes
EndUndoRedoHistory
Fore
SplineSet
182 356 m 1xd0
 223 471 254 551 367 553 c 0
 513 555 520 386 545 280 c 1
 562 174 555 153 557 79 c 8
 558 35 535 -16 496 -16 c 0
 410 -16 432 103 432 186 c 27
 432 292 434 422 376 451 c 0
 320 479 279 356 258 282 c 0
 227 173 214 12 152 0 c 0
 60 -17 90 75 90 223 c 0xb0
 90 228 84 304 84 391 c 8
 84 557 21 817 98 817 c 0
 155 817 170 693 178 578 c 0
 185 476 176 394 182 356 c 1xd0
EndSplineSet
Validated: 33
EndChar

StartChar: s
Encoding: 115 115 11
Width: 477
VWidth: 0
Flags: W
VStem: 135 213<379 510.218>
LayerCount: 2
UndoRedoHistory
Layer: 0
Undoes
EndUndoes
Redoes
EndRedoes
EndUndoRedoHistory
UndoRedoHistory
Layer: 1
Undoes
EndUndoes
Redoes
EndRedoes
EndUndoRedoHistory
Fore
SplineSet
135 276 m 0
 98 444 125 561 230 574 c 0
 255 577 359 524 348 432 c 0
 342 379 281 470 252 442 c 0
 222 412 236 305 240 283 c 0
 261 153 352 145 293 51 c 0
 270 14 145 -30 97 16 c 0
 35 76 175 45 191 123 c 0
 201 169 144 237 135 276 c 0
EndSplineSet
Validated: 33
EndChar

StartChar: m
Encoding: 109 109 12
Width: 756
VWidth: 0
Flags: W
HStem: 0 21G<317 390> 555 20G<481.5 578.5>
VStem: 39 116<13.7515 410.654> 312 100<10.6056 360.527>
LayerCount: 2
UndoRedoHistory
Layer: 0
Undoes
EndUndoes
Redoes
EndRedoes
EndUndoRedoHistory
UndoRedoHistory
Layer: 1
Undoes
EndUndoes
Redoes
EndRedoes
EndUndoRedoHistory
Fore
SplineSet
272 567 m 3
 318 567 289 469 335 473 c 0
 383 477 447 575 516 575 c 3
 641 575 606 363 624 236 c 0
 637 149 685 21 630 29 c 0
 534 43 547 156 538 252 c 0
 529 347 505 501 477 473 c 0
 391 387 406 293 412 176 c 0
 417 79 413 0 367 0 c 0
 267 0 314 156 312 253 c 0
 310 347 246 479 224 465 c 0
 146 413 153 312 155 214 c 0
 157 118 175 -8 85 -8 c 3
 14 -8 37 160 39 270 c 24
 40 359 38 423 93 493 c 24
 140 553 219 567 272 567 c 3
EndSplineSet
Validated: 33
EndChar

StartChar: g
Encoding: 103 103 13
Width: 510
VWidth: 0
Flags: W
VStem: 308 115<-95.022 104.614>
LayerCount: 2
UndoRedoHistory
Layer: 0
Undoes
EndUndoes
Redoes
EndRedoes
EndUndoRedoHistory
UndoRedoHistory
Layer: 1
Undoes
EndUndoes
Redoes
EndRedoes
EndUndoRedoHistory
Fore
SplineSet
164 267 m 4
 147 202 227 185 258 183 c 4
 289 181 296 181 301 248 c 4
 306 315 298 427 267 429 c 4
 236 431 181 332 164 267 c 4
73 343 m 0
 107 474 214 594 301 578 c 0
 344 570 399 431 413 295 c 0
 419 234 426 86 423 0 c 0
 419 -104 407 -211 319 -211 c 0
 237 -211 31 -94 87 -69 c 0
 175 -29 236 -105 300 -98 c 1
 340 -64 306 0 308 106 c 1
 271 117 194 85 173 87 c 0
 83 97 39 212 73 343 c 0
EndSplineSet
Validated: 33
EndChar

StartChar: exclam
Encoding: 33 33 14
Width: 337
VWidth: 0
Flags: W
HStem: 5 85<133.682 223.193>
VStem: 84 100<361.086 776.55> 123 111<17.7318 79.0781>
LayerCount: 2
UndoRedoHistory
Layer: 0
Undoes
EndUndoes
Redoes
EndRedoes
EndUndoRedoHistory
UndoRedoHistory
Layer: 1
Undoes
EndUndoes
Redoes
EndRedoes
EndUndoRedoHistory
Fore
SplineSet
84 524 m 0xc0
 72 681 102 815 137 818 c 0
 235 826 172 665 184 508 c 0
 196 351 225 246 164 233 c 0
 130 226 96 367 84 524 c 0xc0
123 21 m 4xa0
 116 47 133 81 166 90 c 4
 199 99 227 98 234 72 c 4
 241 46 234 26 190 5 c 4
 159 -10 130 -5 123 21 c 4xa0
EndSplineSet
Validated: 33
EndChar

StartChar: v
Encoding: 118 118 15
Width: 465
VWidth: 0
Flags: HW
HStem: 560 20G<338 411>
LayerCount: 2
UndoRedoHistory
Layer: 0
Undoes
EndUndoes
Redoes
EndRedoes
EndUndoRedoHistory
UndoRedoHistory
Layer: 1
Undoes
EndUndoes
Redoes
EndRedoes
EndUndoRedoHistory
Fore
SplineSet
203 146 m 4
 237 106 229 293 251 401 c 4
 269 490 289 581 386 581 c 4
 435 581 472 483 393 500 c 5
 348 449 338 356 334 301 c 4
 325 177 343 7 234 0 c 4
 167 -4 99 90 77 181 c 28
 42 325 11 584 97 561 c 4
 168 542 107 259 203 146 c 4
EndSplineSet
Validated: 33
EndChar

StartChar: t
Encoding: 116 116 16
Width: 481
VWidth: 0
Flags: WO
HStem: 400.315 95.3422<263.037 320.45>
VStem: 160 103.037<128.397 394>
LayerCount: 2
UndoRedoHistory
Layer: 0
Undoes
EndUndoes
Redoes
EndRedoes
EndUndoRedoHistory
UndoRedoHistory
Layer: 1
Undoes
EndUndoes
Redoes
EndRedoes
EndUndoRedoHistory
Fore
SplineSet
15 455 m 4
 16 503 69 466 187 481 c 4
 269 491 450 558 450 529 c 4
 450 500 318 391 199 391 c 4
 80 391 14 426 15 455 c 4
160 365 m 4
 149 595 83 824 115 829 c 4
 221 846 249 691 260 461 c 4
 271 231 291 -15 225 -16 c 4
 191 -17 156 27 149 107 c 4
 142 191 162 313 160 365 c 4
EndSplineSet
EndChar

StartChar: c
Encoding: 99 99 17
Width: 445
VWidth: 0
Flags: W
VStem: 71 112<131.399 349.153>
LayerCount: 2
UndoRedoHistory
Layer: 0
Undoes
EndUndoes
Redoes
EndRedoes
EndUndoRedoHistory
UndoRedoHistory
Layer: 1
Undoes
EndUndoes
Redoes
EndRedoes
EndUndoRedoHistory
Fore
SplineSet
71 268 m 1
 70 475 234 578 269 575 c 0
 336 570 373 460 349 424 c 0
 334 401 332 480 283 461 c 0
 206 431 183 289 183 201 c 0
 183 89 291 54 328 32 c 0
 367 9 332 -5 295 -6 c 0
 154 -9 69 91 71 268 c 1
EndSplineSet
Validated: 33
EndChar

StartChar: l
Encoding: 108 108 18
Width: 372
VWidth: 0
Flags: W
HStem: 796 20G<165 241>
VStem: 120 129<124.671 668.96>
LayerCount: 2
UndoRedoHistory
Layer: 0
Undoes
EndUndoes
Redoes
EndRedoes
EndUndoRedoHistory
UndoRedoHistory
Layer: 1
Undoes
EndUndoes
Redoes
EndRedoes
EndUndoRedoHistory
Fore
SplineSet
120 417 m 0
 126 661 128 816 202 816 c 0
 280 816 246 614 249 370 c 0
 253 40 313 -12 208 -19 c 0
 149 -23 112 87 120 417 c 0
EndSplineSet
Validated: 33
EndChar

StartChar: y
Encoding: 121 121 19
Width: 611
VWidth: 0
Flags: W
LayerCount: 2
UndoRedoHistory
Layer: 0
Undoes
EndUndoes
Redoes
EndRedoes
EndUndoRedoHistory
UndoRedoHistory
Layer: 1
Undoes
EndUndoes
Redoes
EndRedoes
EndUndoRedoHistory
Fore
SplineSet
161 492 m 0
 270 452 146 85 273 155 c 0
 486 273 223 516 387 567 c 0
 466 592 437 361 460 227 c 24
 477 130 492 81 490 -24 c 0
 487 -158 462 -325 345 -344 c 0
 268 -357 144 -255 203 -205 c 0
 258 -158 278 -345 368 -210 c 0
 411 -145 399 120 379 121 c 0
 306 125 293 10 224 27 c 0
 122 53 102 165 87 274 c 24
 75 363 79 522 161 492 c 0
EndSplineSet
Validated: 33
EndChar

StartChar: u
Encoding: 117 117 20
Width: 663
VWidth: 0
Flags: W
VStem: 439 112<269.575 543.086>
LayerCount: 2
UndoRedoHistory
Layer: 0
Undoes
EndUndoes
Redoes
EndRedoes
EndUndoRedoHistory
UndoRedoHistory
Layer: 1
Undoes
EndUndoes
Redoes
EndRedoes
EndUndoRedoHistory
Fore
SplineSet
276 162 m 0
 344 162 428 244 439 330 c 0
 452 440 388 610 483 580 c 0
 574 551 544 412 551 290 c 0
 560 145 628 -8 555 5 c 0
 423 28 497 200 456 176 c 1
 416 120 288 7 229 31 c 0
 118 76 138 177 125 282 c 24
 112 390 65 627 165 557 c 0
 276 480 160 162 276 162 c 0
EndSplineSet
Validated: 33
EndChar

StartChar: p
Encoding: 112 112 21
Width: 550
VWidth: 0
Flags: W
LayerCount: 2
UndoRedoHistory
Layer: 0
Undoes
EndUndoes
Redoes
EndRedoes
EndUndoRedoHistory
UndoRedoHistory
Layer: 1
Undoes
EndUndoes
Redoes
EndRedoes
EndUndoRedoHistory
Fore
SplineSet
120 504 m 0
 167 547 157 475 210 489 c 0
 234 496 227 588 353 594 c 0
 411 597 491 450 428 237 c 0
 371 44 293 17 281 16 c 0
 193 11 368 -243 228 -232 c 0
 114 -223 146 29 135 219 c 0
 127 355 69 456 120 504 c 0
252 322 m 0
 240 197 238 135 261 142 c 0
 273 146 289 128 319 246 c 0
 349 364 356 478 333 484 c 0
 310 490 264 444 252 322 c 0
EndSplineSet
Validated: 33
EndChar

StartChar: w
Encoding: 119 119 22
Width: 751
VWidth: 0
Flags: HW
LayerCount: 2
UndoRedoHistory
Layer: 0
Undoes
EndUndoes
Redoes
EndRedoes
EndUndoRedoHistory
UndoRedoHistory
Layer: 1
Undoes
EndUndoes
Redoes
EndRedoes
EndUndoRedoHistory
Fore
SplineSet
152 567 m 0
 271 469 164 164 291 84 c 0
 305 75 338 177 328 287 c 0
 318 392 295 493 379 498 c 0
 490 504 408 135 547 111 c 0
 582 105 577 211 555 356 c 0
 537 475 460 694 553 672 c 0
 641 652 682 360 684 223 c 0
 686 88 686 18 594 0 c 0
 457 -27 440 110 391 102 c 0
 366 98 420 -14 268 -6 c 0
 152 0 121 126 98 240 c 24
 72 367 51 651 152 567 c 0
EndSplineSet
Validated: 33
EndChar

StartChar: H
Encoding: 72 72 23
Width: 649
VWidth: 0
Flags: HW
VStem: 454 112<111 576>
LayerCount: 2
UndoRedoHistory
Layer: 0
Undoes
EndUndoes
Redoes
EndRedoes
EndUndoRedoHistory
UndoRedoHistory
Layer: 1
Undoes
EndUndoes
Redoes
EndRedoes
EndUndoRedoHistory
Fore
SplineSet
166 353 m 0
 160 375 225 467 330 493 c 0
 435 519 523 476 529 454 c 0
 535 432 455 440 350 414 c 0
 245 388 172 331 166 353 c 0
137 410 m 0
 131 472 141 597 121 655 c 0
 101 713 85 875 170 826 c 0
 199 809 211 670 244 452 c 0
 278 227 331 -78 187 11 c 0
 158 29 159 191 137 410 c 0
454 388 m 1
 442 504 430 659 419 669 c 0
 376 708 387 762 439 781 c 1
 513 808 555 585 565 343 c 0
 575 99 631 -128 525 -41 c 0
 432 35 485 145 454 388 c 1
EndSplineSet
Validated: 37
EndChar

StartChar: E
Encoding: 69 69 24
Width: 685
VWidth: 0
Flags: HW
LayerCount: 2
UndoRedoHistory
Layer: 0
Undoes
EndUndoes
Redoes
EndRedoes
EndUndoRedoHistory
UndoRedoHistory
Layer: 1
Undoes
EndUndoes
Redoes
EndRedoes
EndUndoRedoHistory
Fore
SplineSet
394 827 m 0
 496 832 513 692 478 674 c 0
 433 650 400 697 350 712 c 17
 268 670 182 594 225 535 c 9
 329 522 468 603 492 501 c 0
 511 418 266 297 255 119 c 0
 249 24 459 266 556 291 c 0
 709 331 347 -82 180 11 c 0
 -50 139 307 258 307 434 c 0
 307 452 91 428 93 559 c 0
 95 670 239 819 394 827 c 0
EndSplineSet
Validated: 33
EndChar

StartChar: f
Encoding: 102 102 25
Width: 600
VWidth: 0
Flags: HW
VStem: 204 110<171.291 623.535>
LayerCount: 2
UndoRedoHistory
Layer: 0
Undoes
EndUndoes
Redoes
EndRedoes
EndUndoRedoHistory
UndoRedoHistory
Layer: 1
Undoes
EndUndoes
Redoes
EndRedoes
EndUndoRedoHistory
Fore
SplineSet
204 432 m 4
 204 663 290 833 351 834 c 4
 399 835 575 741 517 688 c 4
 471 646 434 779 386 753 c 4
 322 719 314 446 314 386 c 4
 314 155 395 4 289 5 c 4
 253 5 204 201 204 432 c 4
102 378 m 4
 75 457 180 474 291 514 c 4
 408 556 496 544 505 527 c 4
 522 493 411 499 302 455 c 4
 193 411 117 334 102 378 c 4
EndSplineSet
EndChar

StartChar: j
Encoding: 106 106 26
Width: 389
VWidth: 0
Flags: HW
HStem: 722 103<169 293>
VStem: 160 144<734 814> 178 139<420 526>
LayerCount: 2
UndoRedoHistory
Layer: 0
Undoes
EndUndoes
Redoes
EndRedoes
EndUndoRedoHistory
UndoRedoHistory
Layer: 1
Undoes
EndUndoes
Redoes
EndRedoes
EndUndoRedoHistory
Fore
SplineSet
160 774 m 4xc0
 164 810 185 831 238 824 c 5
 290 809 309 822 304 782 c 5
 300 746 287 715 234 722 c 4
 181 729 156 738 160 774 c 4xc0
178 546 m 1xa0
 178 546 314 541 316 518 c 0
 326 410 304 320 304 193 c 27
 304 34 392 -166 189 -199 c 0
 39 -224 26 -46 48 -27 c 0
 109 26 114 -111 167 -111 c 0
 301 -111 178 546 178 546 c 1xa0
EndSplineSet
Validated: 33
EndChar

StartChar: z
Encoding: 122 122 27
Width: 533
VWidth: 0
Flags: HW
LayerCount: 2
UndoRedoHistory
Layer: 0
Undoes
EndUndoes
Redoes
EndRedoes
EndUndoRedoHistory
UndoRedoHistory
Layer: 1
Undoes
EndUndoes
Redoes
EndRedoes
EndUndoRedoHistory
Fore
SplineSet
271 605 m 0
 456 403 201 187 228 113 c 0
 283 -38 506 122 524 -19 c 0
 557 -269 196 -448 89 -382 c 0
 -28 -309 119 -381 265 -271 c 0
 331 -221 368 -136 365 -71 c 8
 359 65 11 -80 48 72 c 0
 78 196 205 295 195 455 c 24
 191 525 -11 436 21 498 c 24
 69 593 203 679 271 605 c 0
EndSplineSet
Validated: 33
EndChar

StartChar: period
Encoding: 46 46 28
Width: 196
VWidth: 0
Flags: HW
HStem: 2 89<68 166>
VStem: 55 121<14 78>
LayerCount: 2
UndoRedoHistory
Layer: 0
Undoes
EndUndoes
Redoes
EndRedoes
EndUndoRedoHistory
UndoRedoHistory
Layer: 1
Undoes
EndUndoes
Redoes
EndRedoes
EndUndoRedoHistory
Fore
SplineSet
55 37 m 0
 55 64 82 91 116 91 c 0
 150 91 176 81 176 54 c 0
 176 27 163 10 114 2 c 0
 81 -3 55 10 55 37 c 0
EndSplineSet
Validated: 33
EndChar

StartChar: x
Encoding: 120 120 29
Width: 435
VWidth: 0
Flags: W
LayerCount: 2
UndoRedoHistory
Layer: 0
Undoes
EndUndoes
Redoes
EndRedoes
EndUndoRedoHistory
UndoRedoHistory
Layer: 1
Undoes
EndUndoes
Redoes
EndRedoes
EndUndoRedoHistory
Fore
SplineSet
69 15 m 5
 166 5 176 163 219 275 c 4
 239 327 275 412 333 448 c 5
 403 408 397 514 350 528 c 4
 258 556 211 475 168 395 c 4
 141 345 116 273 95 221 c 4
 87 201 44 114 38 64 c 4
 33 23 62 16 69 15 c 5
387 48 m 5
 411 57 327 129 318 139 c 4
 210 258 195 536 119 537 c 4
 19 538 120 263 200 116 c 28
 237 48 315 25 387 48 c 5
EndSplineSet
EndChar

StartChar: q
Encoding: 113 113 30
Width: 482
VWidth: 0
Flags: HW
HStem: -205 104<354 466>
VStem: 306 117<-100 109>
LayerCount: 2
UndoRedoHistory
Layer: 0
Undoes
EndUndoes
Redoes
EndRedoes
EndUndoRedoHistory
UndoRedoHistory
Layer: 1
Undoes
EndUndoes
Redoes
EndRedoes
EndUndoRedoHistory
Fore
SplineSet
163 282 m 0
 146 217 226 199 257 197 c 0
 288 195 295 195 300 262 c 0
 305 329 297 441 266 443 c 0
 235 445 180 347 163 282 c 0
73 343 m 0
 107 474 214 594 301 578 c 0
 344 570 399 431 413 295 c 0
 419 234 426 86 423 0 c 0
 419 -104 427 -100 450 -100 c 0
 504 -100 548 -43 566 -96 c 1
 576 -133 439 -205 398 -205 c 3
 309 -205 306 -10 306 98 c 7
 306 137 194 85 173 87 c 0
 83 97 39 212 73 343 c 0
EndSplineSet
Validated: 33
EndChar

StartChar: plus
Encoding: 43 43 31
Width: 629
VWidth: 0
Flags: HW
LayerCount: 2
UndoRedoHistory
Layer: 0
Undoes
EndUndoes
Redoes
EndRedoes
EndUndoRedoHistory
UndoRedoHistory
Layer: 1
Undoes
EndUndoes
Redoes
EndRedoes
EndUndoRedoHistory
Fore
SplineSet
75 200 m 0
 83 153 190 217 328 240 c 0
 466 263 596 237 583 274 c 0
 576 293 474 321 327 301 c 0
 188 282 61 284 75 200 c 0
361 -31 m 1
 386 -36 353 69 350 82 c 0
 320 240 452 486 387 526 c 0
 302 579 246 291 238 124 c 24
 234 47 288 -13 361 -31 c 1
EndSplineSet
EndChar

StartChar: hyphen
Encoding: 45 45 32
Width: 629
VWidth: 0
Flags: HW
LayerCount: 2
UndoRedoHistory
Layer: 0
Undoes
EndUndoes
Redoes
EndRedoes
EndUndoRedoHistory
UndoRedoHistory
Layer: 1
Undoes
EndUndoes
Redoes
EndRedoes
EndUndoRedoHistory
Fore
SplineSet
75 200 m 4
 61 284 188 282 327 301 c 4
 474 321 576 293 583 274 c 4
 596 237 466 263 328 240 c 4
 190 217 83 153 75 200 c 4
EndSplineSet
Validated: 33
EndChar

StartChar: comma
Encoding: 44 44 33
Width: 350
VWidth: 0
Flags: HW
VStem: 55 71<-128 61>
LayerCount: 2
UndoRedoHistory
Layer: 0
Undoes
EndUndoes
Redoes
EndRedoes
EndUndoRedoHistory
UndoRedoHistory
Layer: 1
Undoes
EndUndoes
Redoes
EndRedoes
EndUndoRedoHistory
Fore
SplineSet
55 -50 m 1
 48 11 47 93 106 61 c 1
 151 55 134 6 126 -57 c 0
 118 -120 131 -147 103 -143 c 0
 75 -139 60 -110 55 -50 c 1
EndSplineSet
Validated: 33
EndChar

StartChar: quotesingle
Encoding: 39 39 34
Width: 155
VWidth: 0
Flags: HW
HStem: 598 236<62 115>
VStem: 61 86<639 816>
LayerCount: 2
UndoRedoHistory
Layer: 0
Undoes
EndUndoes
Redoes
EndRedoes
EndUndoRedoHistory
UndoRedoHistory
Layer: 1
Undoes
EndUndoes
Redoes
EndRedoes
EndUndoRedoHistory
Fore
SplineSet
61 721 m 0
 61 799 28 834 68 834 c 3
 115 834 147 817 147 739 c 3
 147 661 111 598 88 598 c 0
 48 598 61 643 61 721 c 0
EndSplineSet
Validated: 33
EndChar

StartChar: question
Encoding: 63 63 35
Width: 380
VWidth: 0
Flags: HW
HStem: -2 89<141 237> 717 96<102 252>
VStem: 128 119<11 74> 220 127<572 695>
LayerCount: 2
UndoRedoHistory
Layer: 0
Undoes
EndUndoes
Redoes
EndRedoes
EndUndoRedoHistory
UndoRedoHistory
Layer: 1
Undoes
EndUndoes
Redoes
EndRedoes
EndUndoRedoHistory
Fore
SplineSet
109 446 m 0xd0
 141 551 220 556 220 623 c 3
 220 644 210 717 159 717 c 3
 59 717 21 643 10 674 c 0
 -3 710 68 813 199 813 c 0
 305 813 347 735 347 610 c 3
 347 483 251 489 213 403 c 0
 150 259 223 239 162 231 c 0
 127 226 64 296 109 446 c 0xd0
128 30 m 0xe0
 127 57 151 86 185 87 c 0
 219 88 246 81 247 54 c 0
 248 27 237 8 189 -2 c 0
 156 -9 129 3 128 30 c 0xe0
EndSplineSet
Validated: 33
EndChar

StartChar: W
Encoding: 87 87 36
Width: 966
VWidth: 0
Flags: W
VStem: 746 102<595.518 742.564>
LayerCount: 2
UndoRedoHistory
Layer: 0
Undoes
EndUndoes
Redoes
EndRedoes
EndUndoRedoHistory
Back
UndoRedoHistory
Layer: 1
Undoes
EndUndoes
Redoes
EndRedoes
EndUndoRedoHistory
Fore
SplineSet
104 825 m 0
 138 820 185 808 191 774 c 0
 226 581 225 101 341 34 c 0
 378 12 444 197 442 385 c 0
 441 515 405 740 435 739 c 0
 477 738 503 735 547 733 c 0
 570 732 545 532 571 386 c 0
 596 247 671 163 684 170 c 0
 728 194 749 355 746 541 c 0
 744 657 699 787 735 889 c 0
 741 906 849 905 848 860 c 24
 839 552 886 104 711 81 c 0
 618 69 558 209 521 219 c 1
 473 146 479 -10 373 -43 c 0
 204 -95 144 169 116 348 c 0
 88 527 33 836 104 825 c 0
EndSplineSet
Validated: 33
EndChar
